<svg xmlns="http://www.w3.org/2000/svg" xmlns:xlink="http://www.w3.org/1999/xlink" version="1.1" x="0px" y="0px" viewBox="0 0 100 125" enable-background="new 0 0 100 100" xml:space="preserve" fill="#808080"><path d="M97.5,29.145H66.451c2.991-1.768,5.808-3.932,7.868-6.378c3.532-4.198,5.142-8.293,4.782-12.173  c-0.283-3.06-1.801-5.799-4.391-7.922c-2.745-2.249-10.114-6.31-19.253,4.549c-2.198,2.612-4.08,6.074-5.457,9.633  c-1.377-3.559-3.259-7.021-5.458-9.633C35.404-3.638,28.035,0.421,25.29,2.671c-2.589,2.123-4.108,4.862-4.391,7.921  c-0.359,3.88,1.25,7.976,4.782,12.173c0,0,0,0,0,0c2.059,2.447,4.877,4.611,7.867,6.378H2.5c-1.381,0-2.5,1.119-2.5,2.5V53.5  C0,54.881,1.119,56,2.5,56H5v41.5c0,1.381,1.119,2.5,2.5,2.5h85c1.381,0,2.5-1.119,2.5-2.5V56h2.5c1.381,0,2.5-1.119,2.5-2.5V31.645  C100,30.264,98.881,29.145,97.5,29.145z M59.283,10.439c3.593-4.27,6.396-5.454,8.448-5.454c1.915,0,3.175,1.033,3.809,1.552  c1.554,1.274,2.423,2.794,2.582,4.516c0.228,2.464-1.027,5.4-3.63,8.493c-4.767,5.666-14.604,9.357-17.882,9.598h-0.097  C52.2,26.234,54.081,16.622,59.283,10.439z M29.507,19.546L29.507,19.546c-2.602-3.092-3.857-6.029-3.629-8.494  c0.159-1.722,1.028-3.241,2.582-4.515c1.314-1.076,5.312-4.353,12.257,3.902c5.202,6.182,7.083,15.795,6.77,18.705h-0.097  C44.112,28.902,34.274,25.211,29.507,19.546z M5,34.145h42.5V51h-40H5V34.145z M10,56h37.5v39H10V56z M90,95H52.5V56H90V95z M95,51  h-2.5h-40V34.145H95V51z"/></svg>