<svg xmlns="http://www.w3.org/2000/svg" xmlns:xlink="http://www.w3.org/1999/xlink" version="1.1" x="0px" y="0px" viewBox="0 0 91 113.75" enable-background="new 0 0 91 91" xml:space="preserve"><g><path d="M39.251,16.127C5.87,27.264,3.923,54.305,14.517,85.596c1.176,3.475,4.92,7.668,6.957,2.813   c4.611-11.012,17.887-11.842,27.531-16.865c10.182-5.299,21.457-9.346,26.131-19.953c6.697-15.189,6.932-32.467,7.406-51.203   C69.616,9.508,53.483,11.375,39.251,16.127z M19.606,74.48c7.363-18.172,18.738-31.184,33.438-41.838   c-16.563,6.211-26.111,18.568-34.871,31.975c-6.275-16.889,1.854-35.025,18.484-41.959c12.707-5.301,27.428-7.58,39.656-14.252   C75.554,48.023,63.581,62.277,19.606,74.48z"/></g></svg>