<svg xmlns="http://www.w3.org/2000/svg" xmlns:xlink="http://www.w3.org/1999/xlink" version="1.1" x="0px" y="0px" viewBox="0 0 32 40" enable-background="new 0 0 32 32" xml:space="preserve" fill="#808080"><g><g><path d="M22,1H10c-5,0-9,4-9,9v7c0,4.6,3.5,8.4,8,8.9V30c0,0.4,0.2,0.7,0.6,0.9C9.7,31,9.9,31,10,31c0.2,0,0.5-0.1,0.6-0.2    l5.7-4.8H22c5,0,9-4,9-9v-7C31,5,27,1,22,1z M29,17c0,3.9-3.1,7-7,7h-6c-0.2,0-0.5,0.1-0.6,0.2L11,27.9V25c0-0.6-0.4-1-1-1    c-3.9,0-7-3.1-7-7v-7c0-3.9,3.1-7,7-7h12c3.9,0,7,3.1,7,7V17z"/><path d="M18.9,6c-1.1,0-2.1,0.3-2.9,1c-1.4-1-3.3-1.2-4.8-0.6C10.5,6.7,10,7.1,9.5,7.6c-1.9,2.1-1.9,5.6,0,7.7l5.8,6.3    c0.2,0.2,0.5,0.3,0.7,0.3h0c0.3,0,0.5-0.1,0.7-0.3l5.8-6.3c1.9-2.1,1.9-5.6,0-7.7C21.6,6.6,20.3,6,18.9,6z M21.1,14L16,19.5    L10.9,14c-1.3-1.4-1.3-3.6,0-5c0.3-0.3,0.6-0.6,1-0.7C12.3,8.1,12.7,8,13.1,8c0.8,0,1.6,0.3,2.2,1c0.2,0.2,0.5,0.3,0.7,0.3h0    c0.3,0,0.5-0.1,0.7-0.3c1.2-1.3,3.2-1.3,4.3,0C22.3,10.4,22.3,12.6,21.1,14z"/></g></g></svg>