<svg xmlns="http://www.w3.org/2000/svg" xmlns:xlink="http://www.w3.org/1999/xlink" version="1.1" x="0px" y="0px" viewBox="0 0 5 6.25" enable-background="new 0 0 5 5" xml:space="preserve"><g><path fill-rule="evenodd" clip-rule="evenodd" fill="#808080" d="M3.505,2.188C3.396,2.104,3.261,2.044,3.121,2.081   c-0.05,0.014-0.099,0.041-0.141,0.07C2.954,2.167,2.933,2.185,2.907,2.202C2.896,2.21,2.885,2.218,2.874,2.226   C2.871,2.228,2.869,2.228,2.867,2.229v0.002c-0.011,0.004-0.02,0.012-0.028,0.018C2.836,2.25,2.834,2.252,2.832,2.253   c-0.004,0.003-0.01,0.008-0.015,0.01c-0.01,0.006-0.02,0.012-0.031,0.019C2.766,2.294,2.743,2.305,2.721,2.315   C2.717,2.316,2.713,2.317,2.709,2.319c0.005-0.059,0.011-0.117,0.02-0.177c0.003-0.021,0.005-0.044,0.01-0.065   C2.739,2.065,2.74,2.056,2.743,2.046c0-0.002,0-0.004,0-0.004c0-0.002,0-0.002,0-0.002c0.003-0.008,0.003-0.017,0.006-0.023   c0.008-0.045,0.019-0.09,0.031-0.133C2.782,1.871,2.784,1.86,2.788,1.849C2.794,1.833,2.8,1.818,2.802,1.803   C2.85,1.64,2.917,1.483,2.992,1.331c0.034-0.07,0.069-0.141,0.111-0.208c0.012-0.022-0.021-0.044-0.035-0.022   C3.004,1.197,2.938,1.291,2.875,1.39C2.844,1.442,2.816,1.494,2.788,1.547C2.78,1.491,2.769,1.439,2.757,1.385   c-0.036-0.16-0.084-0.317-0.104-0.479c-0.001-0.018-0.027-0.015-0.027,0C2.623,1.069,2.644,1.231,2.664,1.392   c0.008,0.081,0.015,0.16,0.024,0.24c0.004,0.042,0.008,0.072,0.009,0.113c0,0.001,0,0.004,0,0.005   C2.642,1.898,2.606,2.054,2.581,2.208C2.579,2.223,2.577,2.237,2.576,2.252C2.564,2.204,2.553,2.156,2.539,2.11   C2.513,2.022,2.477,1.937,2.432,1.856C2.428,1.849,2.42,1.839,2.416,1.83C2.413,1.825,2.398,1.802,2.407,1.817   c-0.002-0.004-0.006-0.01-0.008-0.014c-0.015-0.021-0.03-0.041-0.044-0.062C2.329,1.706,2.297,1.677,2.264,1.647   c-0.111-0.094-0.249-0.13-0.38-0.197c-0.062-0.031-0.12-0.069-0.166-0.121c-0.058-0.059-0.1-0.131-0.12-0.209   C1.594,1.104,1.573,1.108,1.575,1.123C1.594,1.206,1.624,1.29,1.682,1.356c0.048,0.059,0.106,0.102,0.172,0.142   C1.921,1.536,1.988,1.569,2.053,1.61c0.031,0.019,0.063,0.041,0.093,0.064c0.005,0.004,0.007,0.007,0.011,0.01   c0.003,0,0.003,0,0.003,0.001c0,0,0.002,0.001,0.003,0.003C2.169,1.694,2.176,1.7,2.181,1.706c0.017,0.016,0.031,0.029,0.047,0.045   c0.004,0.008,0.01,0.016,0.016,0.023c0.003,0.005,0.006,0.008,0.01,0.012c0.001,0.002,0.001,0.002,0.001,0.002s0,0.002,0.001,0.002   C2.27,1.81,2.279,1.828,2.289,1.849c0.021,0.037,0.042,0.076,0.058,0.115c0.008,0.02,0.016,0.039,0.021,0.059   c0,0.002,0.003,0.006,0.003,0.009c0,0.001,0.003,0.009,0.003,0.009C2.38,2.054,2.382,2.065,2.385,2.077   C2.397,2.11,2.405,2.146,2.413,2.181C2.354,2.142,2.284,2.115,2.212,2.103C2.108,2.085,2.003,2.104,1.903,2.14   c-0.053,0.02-0.103,0.049-0.149,0.082C1.733,2.239,1.71,2.257,1.688,2.277C1.666,2.3,1.647,2.325,1.624,2.351   c-0.013,0.012,0.005,0.03,0.018,0.019C1.655,2.358,1.673,2.351,1.688,2.34c0.017-0.011,0.031-0.021,0.05-0.031   c0.03-0.017,0.062-0.031,0.097-0.046c0.006-0.002,0.013-0.006,0.021-0.009c0.006-0.001,0.01-0.002,0.014-0.005   c0.001,0,0.004-0.002,0.007-0.002C1.89,2.241,1.907,2.235,1.922,2.231c0.032-0.008,0.063-0.013,0.096-0.018   c0.002,0,0.017,0,0.019,0c0.006,0,0.012-0.002,0.017-0.002c0.015,0,0.03,0,0.048,0c0.013,0.002,0.027,0.002,0.042,0.004   c0.004,0.002,0.01,0.002,0.014,0.003C2.154,2.218,2.173,2.222,2.177,2.222c0.028,0.006,0.057,0.016,0.084,0.025   C2.267,2.25,2.273,2.253,2.279,2.256c0,0,0.001,0,0.003,0c0,0.001,0.002,0.003,0.004,0.003C2.3,2.266,2.313,2.272,2.326,2.281   c0.018,0.011,0.036,0.023,0.05,0.038l0,0c0.006,0.004,0.009,0.006,0.013,0.012c0.009,0.006,0.017,0.016,0.022,0.021   c0.017,0.016,0.03,0.033,0.041,0.05C2.454,2.433,2.46,2.46,2.461,2.489c0,0.002,0.001,0.006,0.001,0.01s0.003,0.008,0.003,0.012   c0,0.006,0,0.01,0,0.014c0-0.004,0-0.002,0,0.005c0.001,0.005,0.001,0.01,0.002,0.017c0,0.025,0.003,0.052,0.003,0.076   c0.003,0.051,0.003,0.101,0.003,0.15C2.47,3.171,2.409,4.433,2.479,4.526C2.505,4.556,2.66,4.554,2.669,4.51   C2.78,3.983,2.671,3.423,2.687,3.156c0.018-0.239,0.006-0.479,0.017-0.719C2.733,2.429,2.765,2.415,2.794,2.4   C2.85,2.374,2.901,2.337,2.947,2.298c0.023-0.017,0.041-0.033,0.064-0.052c0.008-0.007,0.02-0.015,0.027-0.023   C3.045,2.22,3.05,2.216,3.055,2.214c0.001-0.004,0.011-0.01,0.014-0.011C3.087,2.19,3.108,2.178,3.13,2.168   c0.005-0.003,0.011-0.004,0.017-0.007c0.001,0,0.002-0.002,0.005-0.002l0.003-0.001c0.015-0.005,0.027-0.007,0.04-0.01   c0.005,0,0.008-0.001,0.013-0.001c0.001,0,0.011-0.002,0.012-0.002c0.012-0.002,0.021,0,0.031,0   c0.023,0.002,0.044,0.004,0.065,0.008c0.061,0.014,0.12,0.037,0.176,0.062C3.508,2.223,3.516,2.198,3.505,2.188z"/><path fill-rule="evenodd" clip-rule="evenodd" fill="#808080" d="M2.568,0.833c0.036,0.19-0.073,0.371-0.073,0.371   S2.324,1.077,2.288,0.887s0.074-0.37,0.074-0.37S2.529,0.644,2.568,0.833z"/><path fill-rule="evenodd" clip-rule="evenodd" fill="#808080" d="M2,1.052c0.143,0.132,0.161,0.342,0.161,0.342   S1.949,1.392,1.806,1.261C1.665,1.13,1.645,0.917,1.645,0.917S1.855,0.921,2,1.052z"/><path fill-rule="evenodd" clip-rule="evenodd" fill="#808080" d="M3.581,2.32C3.739,2.43,3.789,2.636,3.789,2.636   S3.581,2.665,3.42,2.556C3.261,2.446,3.209,2.24,3.209,2.24S3.419,2.214,3.581,2.32z"/><path fill-rule="evenodd" clip-rule="evenodd" fill="#808080" d="M2.543,1.366c0.101,0.165,0.062,0.373,0.062,0.373   S2.401,1.682,2.301,1.517C2.198,1.351,2.237,1.146,2.237,1.146S2.439,1.202,2.543,1.366z"/><path fill-rule="evenodd" clip-rule="evenodd" fill="#808080" d="M1.53,1.439c0.191,0.023,0.331,0.185,0.331,0.185   S1.688,1.746,1.496,1.722C1.303,1.698,1.165,1.538,1.165,1.538S1.338,1.417,1.53,1.439z"/><path fill-rule="evenodd" clip-rule="evenodd" fill="#808080" d="M1.465,1.981C1.65,1.921,1.843,2.008,1.843,2.008   S1.737,2.192,1.551,2.252C1.369,2.312,1.175,2.226,1.175,2.226S1.28,2.04,1.465,1.981z"/><path fill-rule="evenodd" clip-rule="evenodd" fill="#808080" d="M2.095,2.805C2.154,2.621,2.34,2.517,2.34,2.517   s0.084,0.194,0.024,0.377C2.303,3.079,2.116,3.182,2.116,3.182S2.034,2.987,2.095,2.805z"/><path fill-rule="evenodd" clip-rule="evenodd" fill="#808080" d="M1.982,2.487c0.079-0.118,0.232-0.155,0.232-0.155   s0.022,0.153-0.056,0.272C2.078,2.724,1.928,2.763,1.928,2.763S1.905,2.608,1.982,2.487z"/><path fill-rule="evenodd" clip-rule="evenodd" fill="#808080" d="M1.985,1.755C2.15,1.798,2.254,1.952,2.254,1.952   S2.09,2.04,1.924,1.999S1.653,1.803,1.653,1.803S1.817,1.716,1.985,1.755z"/><path fill-rule="evenodd" clip-rule="evenodd" fill="#808080" d="M1.231,1.771c0.142-0.012,0.265,0.082,0.265,0.082   S1.39,1.968,1.247,1.98C1.105,1.991,0.98,1.897,0.98,1.897S1.088,1.782,1.231,1.771z"/><path fill-rule="evenodd" clip-rule="evenodd" fill="#808080" d="M2.188,0.769c0.075,0.122,0.043,0.276,0.043,0.276   s-0.149-0.046-0.223-0.17C1.935,0.753,1.967,0.601,1.967,0.601S2.116,0.646,2.188,0.769z"/><path fill-rule="evenodd" clip-rule="evenodd" fill="#808080" d="M2.794,0.681C2.789,0.803,2.696,0.899,2.696,0.899   S2.61,0.798,2.613,0.673c0.005-0.123,0.098-0.22,0.098-0.22S2.799,0.556,2.794,0.681z"/><path fill-rule="evenodd" clip-rule="evenodd" fill="#808080" d="M3.316,0.939C3.25,1.042,3.117,1.074,3.117,1.074   S3.099,0.941,3.169,0.839c0.069-0.102,0.199-0.135,0.199-0.135S3.387,0.838,3.316,0.939z"/><path fill-rule="evenodd" clip-rule="evenodd" fill="#808080" d="M3.778,2.364c-0.117-0.041-0.181-0.16-0.181-0.16   s0.124-0.053,0.24-0.011c0.116,0.04,0.181,0.157,0.181,0.157S3.896,2.403,3.778,2.364z"/><path fill-rule="evenodd" clip-rule="evenodd" fill="#808080" d="M1.452,1.161c0.111,0.057,0.159,0.18,0.159,0.18   S1.481,1.38,1.373,1.322c-0.112-0.054-0.159-0.18-0.159-0.18S1.343,1.106,1.452,1.161z"/><path fill-rule="evenodd" clip-rule="evenodd" fill="#808080" d="M1.869,0.722c0.076,0.081,0.077,0.203,0.077,0.203   s-0.123-0.01-0.2-0.092C1.673,0.751,1.673,0.63,1.673,0.63S1.793,0.64,1.869,0.722z"/><path fill-rule="evenodd" clip-rule="evenodd" fill="#808080" d="M3.079,2.601c-0.101-0.102-0.108-0.26-0.108-0.26   s0.157,0.01,0.258,0.111c0.1,0.102,0.107,0.259,0.107,0.259S3.181,2.702,3.079,2.601z"/><path fill-rule="evenodd" clip-rule="evenodd" fill="#808080" d="M1.609,2.47c0.146-0.125,0.359-0.119,0.359-0.119   S1.94,2.561,1.793,2.687C1.645,2.812,1.435,2.805,1.435,2.805S1.461,2.595,1.609,2.47z"/><path fill-rule="evenodd" clip-rule="evenodd" fill="#808080" d="M2.834,2.858c-0.088-0.172-0.03-0.375-0.03-0.375   s0.197,0.076,0.283,0.25c0.086,0.173,0.028,0.376,0.028,0.376S2.92,3.032,2.834,2.858z"/><path fill-rule="evenodd" clip-rule="evenodd" fill="#808080" d="M3.555,2.113c-0.19-0.032-0.321-0.198-0.321-0.198   s0.179-0.113,0.368-0.082c0.192,0.033,0.322,0.199,0.322,0.199S3.746,2.146,3.555,2.113z"/><path fill-rule="evenodd" clip-rule="evenodd" fill="#808080" d="M3.385,1.384C3.229,1.495,3.018,1.47,3.018,1.47   s0.046-0.207,0.205-0.318C3.379,1.04,3.59,1.065,3.59,1.065S3.543,1.272,3.385,1.384z"/><path fill-rule="evenodd" clip-rule="evenodd" fill="#808080" d="M3.215,1.837C3.056,1.948,2.848,1.923,2.848,1.923   S2.894,1.716,3.05,1.604c0.159-0.11,0.37-0.086,0.37-0.086S3.372,1.725,3.215,1.837z"/><path fill-rule="evenodd" clip-rule="evenodd" fill="#808080" d="M3.661,1.771C3.536,1.808,3.406,1.746,3.406,1.746   s0.074-0.122,0.2-0.158C3.73,1.55,3.861,1.612,3.861,1.612S3.785,1.734,3.661,1.771z"/><path fill-rule="evenodd" clip-rule="evenodd" fill="#808080" d="M3.745,1.466C3.631,1.53,3.492,1.498,3.492,1.498   S3.539,1.362,3.65,1.3c0.116-0.064,0.255-0.033,0.255-0.033S3.861,1.403,3.745,1.466z"/><path fill-rule="evenodd" clip-rule="evenodd" fill="#808080" d="M3.048,0.987C2.993,1.173,2.811,1.282,2.811,1.282   s-0.09-0.191-0.034-0.377C2.834,0.72,3.013,0.61,3.013,0.61S3.104,0.803,3.048,0.987z"/></g></svg>